<svg width="530" height="530" viewBox="0 0 530 530" fill="none" xmlns="http://www.w3.org/2000/svg">
<path fill-rule="evenodd" clip-rule="evenodd" d="M4.52848 524.465L-2.41934e-07 524.465L-1.97946e-07 525.472L4.52848 525.472L4.52848 530L5.53481 530L5.53481 525.472L10.0633 525.472L10.0633 524.465L5.53481 524.465L5.53481 519.937L4.52848 519.937L4.52848 524.465Z" fill="#F9795A"/>
<path fill-rule="evenodd" clip-rule="evenodd" d="M4.52848 420.477L-2.41934e-07 420.477L-1.97946e-07 421.483L4.52848 421.483L4.52848 426.012L5.53481 426.012L5.53481 421.483L10.0633 421.483L10.0633 420.477L5.53481 420.477L5.53481 415.948L4.52848 415.948L4.52848 420.477Z" fill="#F9795A"/>
<path fill-rule="evenodd" clip-rule="evenodd" d="M4.52848 316.491L-2.41934e-07 316.491L-1.97946e-07 317.497L4.52848 317.497L4.52848 322.025L5.53481 322.025L5.53481 317.497L10.0633 317.497L10.0633 316.491L5.53481 316.491L5.53481 311.962L4.52848 311.962L4.52848 316.491Z" fill="#F9795A"/>
<path fill-rule="evenodd" clip-rule="evenodd" d="M4.52848 212.504L-2.41934e-07 212.504L-1.97946e-07 213.511L4.52848 213.511L4.52848 218.039L5.53481 218.039L5.53481 213.511L10.0633 213.511L10.0633 212.504L5.53481 212.504L5.53481 207.976L4.52848 207.976L4.52848 212.504Z" fill="#F9795A"/>
<path fill-rule="evenodd" clip-rule="evenodd" d="M4.52848 108.516L-2.41934e-07 108.516L-1.97946e-07 109.522L4.52848 109.522L4.52848 114.051L5.53481 114.051L5.53481 109.522L10.0633 109.522L10.0633 108.516L5.53481 108.516L5.53481 103.987L4.52848 103.987L4.52848 108.516Z" fill="#F9795A"/>
<path fill-rule="evenodd" clip-rule="evenodd" d="M4.52848 4.52769L-2.41934e-07 4.52769L-1.97946e-07 5.53402L4.52848 5.53402L4.52848 10.0625L5.53481 10.0625L5.53481 5.53402L10.0633 5.53402L10.0633 4.52769L5.53481 4.52769L5.53481 -0.000790838L4.52848 -0.000790794L4.52848 4.52769Z" fill="#F9795A"/>
<path fill-rule="evenodd" clip-rule="evenodd" d="M108.513 524.465L103.984 524.465L103.984 525.472L108.513 525.472L108.513 530L109.519 530L109.519 525.472L114.048 525.472L114.048 524.465L109.519 524.465L109.519 519.937L108.513 519.937L108.513 524.465Z" fill="#F9795A"/>
<path fill-rule="evenodd" clip-rule="evenodd" d="M108.513 420.477L103.984 420.477L103.984 421.483L108.513 421.483L108.513 426.012L109.519 426.012L109.519 421.483L114.048 421.483L114.048 420.477L109.519 420.477L109.519 415.948L108.513 415.948L108.513 420.477Z" fill="#F9795A"/>
<path fill-rule="evenodd" clip-rule="evenodd" d="M108.513 316.491L103.984 316.491L103.984 317.497L108.513 317.497L108.513 322.025L109.519 322.025L109.519 317.497L114.048 317.497L114.048 316.491L109.519 316.491L109.519 311.962L108.513 311.962L108.513 316.491Z" fill="#F9795A"/>
<path fill-rule="evenodd" clip-rule="evenodd" d="M108.513 212.504L103.984 212.504L103.984 213.511L108.513 213.511L108.513 218.039L109.519 218.039L109.519 213.511L114.048 213.511L114.048 212.504L109.519 212.504L109.519 207.976L108.513 207.976L108.513 212.504Z" fill="#F9795A"/>
<path fill-rule="evenodd" clip-rule="evenodd" d="M108.513 108.516L103.984 108.516L103.984 109.522L108.513 109.522L108.513 114.051L109.519 114.051L109.519 109.522L114.048 109.522L114.048 108.516L109.519 108.516L109.519 103.987L108.513 103.987L108.513 108.516Z" fill="#F9795A"/>
<path fill-rule="evenodd" clip-rule="evenodd" d="M108.513 4.52769L103.984 4.52769L103.984 5.53402L108.513 5.53402L108.513 10.0625L109.519 10.0625L109.519 5.53402L114.048 5.53402L114.048 4.52769L109.519 4.52769L109.519 -0.000790838L108.513 -0.000790794L108.513 4.52769Z" fill="#F9795A"/>
<path fill-rule="evenodd" clip-rule="evenodd" d="M212.505 524.465L207.977 524.465L207.977 525.472L212.505 525.472L212.505 530L213.511 530L213.511 525.472L218.04 525.472L218.04 524.465L213.511 524.465L213.511 519.937L212.505 519.937L212.505 524.465Z" fill="#F9795A"/>
<path fill-rule="evenodd" clip-rule="evenodd" d="M212.505 420.477L207.977 420.477L207.977 421.483L212.505 421.483L212.505 426.012L213.511 426.012L213.511 421.483L218.04 421.483L218.04 420.477L213.511 420.477L213.511 415.948L212.505 415.948L212.505 420.477Z" fill="#F9795A"/>
<path fill-rule="evenodd" clip-rule="evenodd" d="M212.505 316.491L207.977 316.491L207.977 317.497L212.505 317.497L212.505 322.025L213.511 322.025L213.511 317.497L218.04 317.497L218.04 316.491L213.511 316.491L213.511 311.962L212.505 311.962L212.505 316.491Z" fill="#F9795A"/>
<path fill-rule="evenodd" clip-rule="evenodd" d="M212.505 212.504L207.977 212.504L207.977 213.511L212.505 213.511L212.505 218.039L213.511 218.039L213.511 213.511L218.04 213.511L218.04 212.504L213.511 212.504L213.511 207.976L212.505 207.976L212.505 212.504Z" fill="#F9795A"/>
<path fill-rule="evenodd" clip-rule="evenodd" d="M212.505 108.516L207.977 108.516L207.977 109.522L212.505 109.522L212.505 114.051L213.511 114.051L213.511 109.522L218.04 109.522L218.04 108.516L213.511 108.516L213.511 103.987L212.505 103.987L212.505 108.516Z" fill="#F9795A"/>
<path fill-rule="evenodd" clip-rule="evenodd" d="M212.505 4.52769L207.977 4.52769L207.977 5.53402L212.505 5.53402L212.505 10.0625L213.511 10.0625L213.511 5.53402L218.04 5.53402L218.04 4.52769L213.511 4.52769L213.511 -0.000790838L212.505 -0.000790794L212.505 4.52769Z" fill="#F9795A"/>
<path fill-rule="evenodd" clip-rule="evenodd" d="M316.489 524.465L311.961 524.465L311.961 525.472L316.489 525.472L316.489 530L317.496 530L317.496 525.472L322.024 525.472L322.024 524.465L317.496 524.465L317.496 519.937L316.489 519.937L316.489 524.465Z" fill="#F9795A"/>
<path fill-rule="evenodd" clip-rule="evenodd" d="M316.489 420.477L311.961 420.477L311.961 421.483L316.489 421.483L316.489 426.012L317.496 426.012L317.496 421.483L322.024 421.483L322.024 420.477L317.496 420.477L317.496 415.948L316.489 415.948L316.489 420.477Z" fill="#F9795A"/>
<path fill-rule="evenodd" clip-rule="evenodd" d="M316.489 316.491L311.961 316.491L311.961 317.497L316.489 317.497L316.489 322.025L317.496 322.025L317.496 317.497L322.024 317.497L322.024 316.491L317.496 316.491L317.496 311.962L316.489 311.962L316.489 316.491Z" fill="#F9795A"/>
<path fill-rule="evenodd" clip-rule="evenodd" d="M316.489 212.504L311.961 212.504L311.961 213.511L316.489 213.511L316.489 218.039L317.496 218.039L317.496 213.511L322.024 213.511L322.024 212.504L317.496 212.504L317.496 207.976L316.489 207.976L316.489 212.504Z" fill="#F9795A"/>
<path fill-rule="evenodd" clip-rule="evenodd" d="M316.489 108.516L311.961 108.516L311.961 109.522L316.489 109.522L316.489 114.051L317.496 114.051L317.496 109.522L322.024 109.522L322.024 108.516L317.496 108.516L317.496 103.987L316.489 103.987L316.489 108.516Z" fill="#F9795A"/>
<path fill-rule="evenodd" clip-rule="evenodd" d="M316.489 4.52769L311.961 4.52769L311.961 5.53402L316.489 5.53402L316.489 10.0625L317.496 10.0625L317.496 5.53402L322.024 5.53402L322.024 4.52769L317.496 4.52769L317.496 -0.000790838L316.489 -0.000790794L316.489 4.52769Z" fill="#F9795A"/>
<path fill-rule="evenodd" clip-rule="evenodd" d="M420.482 524.465L415.953 524.465L415.953 525.472L420.482 525.472L420.482 530L421.488 530L421.488 525.472L426.016 525.472L426.016 524.465L421.488 524.465L421.488 519.937L420.482 519.937L420.482 524.465Z" fill="#F9795A"/>
<path fill-rule="evenodd" clip-rule="evenodd" d="M420.482 420.477L415.953 420.477L415.953 421.483L420.482 421.483L420.482 426.012L421.488 426.012L421.488 421.483L426.016 421.483L426.016 420.477L421.488 420.477L421.488 415.948L420.482 415.948L420.482 420.477Z" fill="#F9795A"/>
<path fill-rule="evenodd" clip-rule="evenodd" d="M420.482 316.491L415.953 316.491L415.953 317.497L420.482 317.497L420.482 322.025L421.488 322.025L421.488 317.497L426.016 317.497L426.016 316.491L421.488 316.491L421.488 311.962L420.482 311.962L420.482 316.491Z" fill="#F9795A"/>
<path fill-rule="evenodd" clip-rule="evenodd" d="M420.482 212.504L415.953 212.504L415.953 213.511L420.482 213.511L420.482 218.039L421.488 218.039L421.488 213.511L426.016 213.511L426.016 212.504L421.488 212.504L421.488 207.976L420.482 207.976L420.482 212.504Z" fill="#F9795A"/>
<path fill-rule="evenodd" clip-rule="evenodd" d="M420.482 108.516L415.953 108.516L415.953 109.522L420.482 109.522L420.482 114.051L421.488 114.051L421.488 109.522L426.016 109.522L426.016 108.516L421.488 108.516L421.488 103.987L420.482 103.987L420.482 108.516Z" fill="#F9795A"/>
<path fill-rule="evenodd" clip-rule="evenodd" d="M420.482 4.52769L415.953 4.52769L415.953 5.53402L420.482 5.53402L420.482 10.0625L421.488 10.0625L421.488 5.53402L426.016 5.53402L426.016 4.52769L421.488 4.52769L421.488 -0.000790838L420.482 -0.000790794L420.482 4.52769Z" fill="#F9795A"/>
<path fill-rule="evenodd" clip-rule="evenodd" d="M524.466 524.465L519.937 524.465L519.937 525.472L524.466 525.472L524.466 530L525.472 530L525.472 525.472L530.001 525.472L530.001 524.465L525.472 524.465L525.472 519.937L524.466 519.937L524.466 524.465Z" fill="#F9795A"/>
<path fill-rule="evenodd" clip-rule="evenodd" d="M524.466 420.477L519.937 420.477L519.937 421.483L524.466 421.483L524.466 426.012L525.472 426.012L525.472 421.483L530.001 421.483L530.001 420.477L525.472 420.477L525.472 415.948L524.466 415.948L524.466 420.477Z" fill="#F9795A"/>
<path fill-rule="evenodd" clip-rule="evenodd" d="M524.466 316.491L519.937 316.491L519.937 317.497L524.466 317.497L524.466 322.025L525.472 322.025L525.472 317.497L530.001 317.497L530.001 316.491L525.472 316.491L525.472 311.962L524.466 311.962L524.466 316.491Z" fill="#F9795A"/>
<path fill-rule="evenodd" clip-rule="evenodd" d="M524.466 212.504L519.937 212.504L519.937 213.511L524.466 213.511L524.466 218.039L525.472 218.039L525.472 213.511L530.001 213.511L530.001 212.504L525.472 212.504L525.472 207.976L524.466 207.976L524.466 212.504Z" fill="#F9795A"/>
<path fill-rule="evenodd" clip-rule="evenodd" d="M524.466 108.516L519.937 108.516L519.937 109.522L524.466 109.522L524.466 114.051L525.472 114.051L525.472 109.522L530.001 109.522L530.001 108.516L525.472 108.516L525.472 103.987L524.466 103.987L524.466 108.516Z" fill="#F9795A"/>
<path fill-rule="evenodd" clip-rule="evenodd" d="M524.466 4.52769L519.937 4.52769L519.937 5.53402L524.466 5.53402L524.466 10.0625L525.472 10.0625L525.472 5.53402L530.001 5.53402L530.001 4.52769L525.472 4.52769L525.472 -0.000790838L524.466 -0.000790794L524.466 4.52769Z" fill="#F9795A"/>
</svg>
